PERFORMER "Claudio Arrau"
TITLE "Great Pianists of the 20th Century Vol 06 Claudio Arrau III CD2"
FILE "Vol06b - Arrau III.mp3" MP3
  TRACK 01 AUDIO
    TITLE "Années de pélerinage Première année: Suisse: 6 Vallée d'Obermann"
	PERFORMER "Franz Liszt"
    INDEX 01 00:00:00
  TRACK 02 AUDIO
    TITLE "Moments musicaux, D.780: No.1 in C"
    PERFORMER "Franz Schubert"
	INDEX 01 15:05:00
  TRACK 03 AUDIO
    TITLE "Moments musicaux, D.780: No.2 in A flat"
	PERFORMER "Franz Schubert"
    INDEX 01 20:58:00
  TRACK 04 AUDIO
    TITLE "Moments musicaux, D.780: No.3 in F minor"
	PERFORMER "Franz Schubert"
    INDEX 01 27:49:00
  TRACK 05 AUDIO
    TITLE "Moments musicaux, D.780: No.4 in C sharp minor"
	PERFORMER "Franz Schubert"
    INDEX 01 29:55:00
  TRACK 06 AUDIO
    TITLE "Moments musicaux, D.780: No.5 in F minor"
	PERFORMER "Franz Schubert"
    INDEX 01 35:59:00
  TRACK 07 AUDIO
    TITLE "Moments musicaux, D.780: No.6 in A flat"
	PERFORMER "Franz Schubert"
    INDEX 01 38:46:00
  TRACK 08 AUDIO
    TITLE "Images, Book2: 1 Cloches à travers les feuilles"
	PERFORMER "Claude Debussy"
    INDEX 01 46:41:00
  TRACK 09 AUDIO
    TITLE "Images, Book2: 2 Et la lune descend sur le temple qui fut"
	PERFORMER "Claude Debussy"
    INDEX 01 52:07:00
  TRACK 10 AUDIO
    TITLE "Images, Book2: 3 Poissons d'or"
	PERFORMER "Claude Debussy"
    INDEX 01 58:19:00
  TRACK 11 AUDIO
    TITLE "Fantasia in C minor, KV475"
	PERFORMER "Wolfgang Amadeus Mozart"
    INDEX 01 62:54:00
